<svg width="253" height="62" viewBox="0 0 253 62" fill="none" xmlns="http://www.w3.org/2000/svg">
<path d="M45.1311 22.7881H32.2816C32.1843 21.3375 32.1542 19.9309 31.985 18.5428C31.649 15.7829 30.2308 14.2767 27.4315 14.1377C24.1201 13.9754 20.7901 13.9894 17.4787 14.1562C14.7744 14.2929 13.2798 16.1143 13.1222 19.106C13.0365 20.7281 13.106 22.3594 13.0735 23.9862C13.0666 24.3176 13.0179 24.7439 12.814 24.9595C11.7225 26.1158 10.5755 27.2211 9.44464 28.3404C9.2778 28.5049 9.08546 28.644 8.78653 28.8942C8.75872 28.447 8.72396 28.1457 8.72396 27.8445C8.72396 24.9085 8.69615 21.9725 8.7425 19.0364C8.82824 13.7182 12.9113 9.68613 18.2087 9.656C21.0033 9.63978 23.8026 9.75796 26.5903 9.62588C30.6757 9.43354 35.2223 11.9733 36.3902 17.5742C36.5362 18.2694 36.761 18.5428 37.4747 18.5104C38.5268 18.4617 39.5811 18.4988 40.8649 18.4988C40.6726 17.5024 40.5613 16.645 40.3366 15.8177C38.5777 9.31072 33.4055 5.31106 26.6715 5.26935C23.6659 5.25081 20.6557 5.23228 17.6525 5.33424C10.3206 5.58451 4.39525 11.7763 4.39525 19.1106C4.39525 26.9639 4.54355 34.8196 4.35585 42.6683C4.14729 51.3512 11.704 57.4341 18.9525 57.163C22.2709 57.0378 25.624 57.3043 28.9123 56.9451C35.3428 56.2407 40.6193 50.4544 40.7467 44.2278C39.5209 44.2278 38.2904 44.1791 37.0692 44.2672C36.8235 44.2857 36.4991 44.7886 36.4111 45.12C35.3335 49.1891 32.8262 51.8146 28.662 52.6326C27.362 52.8876 25.9832 52.8018 24.6438 52.7833C21.9604 52.7462 19.2422 52.8922 16.6005 52.5237C12.2231 51.912 8.97423 48.1695 8.7958 43.7643C8.66835 40.6035 8.77031 37.4312 8.77031 33.99C10.2789 35.4939 11.6345 36.8101 12.9322 38.182C13.1245 38.3859 13.0619 38.8517 13.0759 39.1969C13.1523 40.9233 13.0828 42.6706 13.3145 44.3738C13.6598 46.9136 15.2564 48.3804 17.817 48.4685C20.9547 48.5774 24.1039 48.5959 27.2392 48.4476C30.3814 48.3016 32.0453 46.2045 32.1774 42.5756C32.2098 41.7019 32.182 40.8283 32.182 39.8852H44.9781C46.146 48.6863 42.4314 56.6949 33.7068 60.1708C31.5818 61.0166 29.3665 61.4291 27.077 61.4268C24.0344 61.4245 20.9941 61.443 17.9515 61.4198C8.83983 61.355 -0.132759 53.4113 0.00627921 43.2082C0.115192 35.3224 0.152269 27.4297 0.00396191 19.5462C-0.206912 8.44174 8.03804 2.47932 15.6643 1.25811C19.1171 0.704271 22.7135 1.07736 26.2428 0.942953C28.954 0.838675 31.4961 1.46435 33.9756 2.44688C40.7792 5.14422 45.1218 11.5423 45.1334 18.8464C45.1334 20.1163 45.1334 21.3862 45.1334 22.7881H45.1311Z" fill="white"/>
<path d="M8.39001 31.6863C13.1243 26.8316 17.7843 22.0556 22.558 17.1592C27.4429 21.9653 32.2095 26.6555 36.7445 31.1186C32.0427 36.029 27.4313 40.8466 22.7295 45.757C17.8353 40.9555 13.1034 36.314 8.3877 31.6886L8.39001 31.6863ZM14.8645 31.4546C17.3603 34.0871 19.907 36.7728 22.5348 39.5443C25.2739 36.6894 27.8994 33.9503 30.3001 31.4477C27.86 28.8615 25.304 26.1526 22.7156 23.4089C20.0043 26.1874 17.3742 28.8824 14.8622 31.4546H14.8645Z" fill="white"/>
<path d="M77.3913 26.8606H71.856C71.7549 26.1445 71.5484 25.5084 71.2367 24.9523C70.925 24.3878 70.5248 23.9076 70.0361 23.5116C69.5474 23.1156 68.9829 22.8123 68.3426 22.6017C67.7107 22.391 67.0241 22.2857 66.2827 22.2857C64.943 22.2857 63.7761 22.6185 62.782 23.2841C61.7878 23.9413 61.0169 24.9018 60.4692 26.1656C59.9216 27.4209 59.6478 28.9459 59.6478 30.7405C59.6478 32.5856 59.9216 34.1358 60.4692 35.3912C61.0253 36.6466 61.8004 37.5944 62.7946 38.2347C63.7888 38.875 64.9388 39.1952 66.2447 39.1952C66.9777 39.1952 67.656 39.0983 68.2794 38.9045C68.9113 38.7107 69.4716 38.4285 69.9603 38.0578C70.4489 37.6787 70.8534 37.2195 71.1735 36.6803C71.5021 36.141 71.7296 35.526 71.856 34.8351L77.3913 34.8604C77.2481 36.0484 76.89 37.1942 76.3171 38.2979C75.7526 39.3932 74.9901 40.3747 74.0297 41.2425C73.0776 42.1019 71.9402 42.7844 70.6174 43.2899C69.3031 43.787 67.8161 44.0355 66.1563 44.0355C63.8478 44.0355 61.7836 43.5131 59.9637 42.4684C58.1523 41.4237 56.72 39.9113 55.6668 37.9314C54.6221 35.9515 54.0998 33.5545 54.0998 30.7405C54.0998 27.918 54.6305 25.5168 55.6921 23.5369C56.7537 21.5569 58.1944 20.0488 60.0143 19.0125C61.8341 17.9678 63.8815 17.4454 66.1563 17.4454C67.656 17.4454 69.0461 17.6561 70.3268 18.0773C71.6158 18.4986 72.7575 19.1136 73.7516 19.9224C74.7458 20.7228 75.5546 21.7044 76.1781 22.8671C76.81 24.0298 77.2144 25.3609 77.3913 26.8606ZM97.3023 17.7993H102.774V34.6077C102.774 36.4949 102.324 38.1463 101.422 39.5617C100.529 40.9771 99.278 42.0808 97.6688 42.8728C96.0596 43.6564 94.185 44.0481 92.0449 44.0481C89.8965 44.0481 88.0177 43.6564 86.4085 42.8728C84.7992 42.0808 83.5481 40.9771 82.655 39.5617C81.7619 38.1463 81.3154 36.4949 81.3154 34.6077V17.7993H86.7876V34.1401C86.7876 35.1258 87.0024 36.002 87.4321 36.7687C87.8702 37.5354 88.4853 38.1378 89.2773 38.5759C90.0692 39.0141 90.9918 39.2331 92.0449 39.2331C93.1065 39.2331 94.0291 39.0141 94.8126 38.5759C95.6046 38.1378 96.2154 37.5354 96.6451 36.7687C97.0832 36.002 97.3023 35.1258 97.3023 34.1401V17.7993ZM107.277 43.6816V17.7993H124.717V22.311H112.749V28.4783H123.82V32.99H112.749V39.1699H124.768V43.6816H107.277ZM129.068 43.6816V17.7993H146.508V22.311H134.54V28.4783H145.611V32.99H134.54V39.1699H146.558V43.6816H129.068ZM160.034 43.6816H150.858V17.7993H160.109C162.713 17.7993 164.954 18.3174 166.833 19.3537C168.712 20.3816 170.156 21.8603 171.167 23.7896C172.187 25.719 172.697 28.0275 172.697 30.7152C172.697 33.4113 172.187 35.7282 171.167 37.666C170.156 39.6038 168.703 41.0909 166.807 42.1272C164.92 43.1635 162.662 43.6816 160.034 43.6816ZM156.331 38.993H159.806C161.424 38.993 162.784 38.7065 163.888 38.1336C165 37.5523 165.834 36.655 166.39 35.4418C166.955 34.2201 167.237 32.6446 167.237 30.7152C167.237 28.8027 166.955 27.2398 166.39 26.0265C165.834 24.8133 165.004 23.9202 163.901 23.3473C162.797 22.7744 161.436 22.4879 159.819 22.4879H156.331V38.993ZM179.752 43.6816H173.888L182.823 17.7993H189.875L198.797 43.6816H192.933L186.45 23.7138H186.248L179.752 43.6816ZM179.385 33.5082H193.236V37.7798H179.385V33.5082ZM223.532 26.8606H217.997C217.896 26.1445 217.69 25.5084 217.378 24.9523C217.066 24.3878 216.666 23.9076 216.177 23.5116C215.689 23.1156 215.124 22.8123 214.484 22.6017C213.852 22.391 213.165 22.2857 212.424 22.2857C211.084 22.2857 209.917 22.6185 208.923 23.2841C207.929 23.9413 207.158 24.9018 206.61 26.1656C206.063 27.4209 205.789 28.9459 205.789 30.7405C205.789 32.5856 206.063 34.1358 206.61 35.3912C207.166 36.6466 207.942 37.5944 208.936 38.2347C209.93 38.875 211.08 39.1952 212.386 39.1952C213.119 39.1952 213.797 39.0983 214.421 38.9045C215.052 38.7107 215.613 38.4285 216.101 38.0578C216.59 37.6787 216.994 37.2195 217.315 36.6803C217.643 36.141 217.871 35.526 217.997 34.8351L223.532 34.8604C223.389 36.0484 223.031 37.1942 222.458 38.2979C221.894 39.3932 221.131 40.3747 220.171 41.2425C219.219 42.1019 218.081 42.7844 216.759 43.2899C215.444 43.787 213.957 44.0355 212.297 44.0355C209.989 44.0355 207.925 43.5131 206.105 42.4684C204.293 41.4237 202.861 39.9113 201.808 37.9314C200.763 35.9515 200.241 33.5545 200.241 30.7405C200.241 27.918 200.772 25.5168 201.833 23.5369C202.895 21.5569 204.336 20.0488 206.155 19.0125C207.975 17.9678 210.023 17.4454 212.297 17.4454C213.797 17.4454 215.187 17.6561 216.468 18.0773C217.757 18.4986 218.899 19.1136 219.893 19.9224C220.887 20.7228 221.696 21.7044 222.319 22.8671C222.951 24.0298 223.356 25.3609 223.532 26.8606ZM250.293 26.8606H244.758C244.657 26.1445 244.45 25.5084 244.139 24.9523C243.827 24.3878 243.427 23.9076 242.938 23.5116C242.449 23.1156 241.885 22.8123 241.244 22.6017C240.613 22.391 239.926 22.2857 239.184 22.2857C237.845 22.2857 236.678 22.6185 235.684 23.2841C234.69 23.9413 233.919 24.9018 233.371 26.1656C232.823 27.4209 232.55 28.9459 232.55 30.7405C232.55 32.5856 232.823 34.1358 233.371 35.3912C233.927 36.6466 234.702 37.5944 235.696 38.2347C236.691 38.875 237.841 39.1952 239.147 39.1952C239.88 39.1952 240.558 39.0983 241.181 38.9045C241.813 38.7107 242.373 38.4285 242.862 38.0578C243.351 37.6787 243.755 37.2195 244.075 36.6803C244.404 36.141 244.631 35.526 244.758 34.8351L250.293 34.8604C250.15 36.0484 249.792 37.1942 249.219 38.2979C248.654 39.3932 247.892 40.3747 246.931 41.2425C245.979 42.1019 244.842 42.7844 243.519 43.2899C242.205 43.787 240.718 44.0355 239.058 44.0355C236.75 44.0355 234.685 43.5131 232.866 42.4684C231.054 41.4237 229.622 39.9113 228.569 37.9314C227.524 35.9515 227.002 33.5545 227.002 30.7405C227.002 27.918 227.532 25.5168 228.594 23.5369C229.656 21.5569 231.096 20.0488 232.916 19.0125C234.736 17.9678 236.783 17.4454 239.058 17.4454C240.558 17.4454 241.948 17.6561 243.229 18.0773C244.518 18.4986 245.659 19.1136 246.653 19.9224C247.648 20.7228 248.456 21.7044 249.08 22.8671C249.712 24.0298 250.116 25.3609 250.293 26.8606Z" fill="white"/>
</svg>
