<svg width="143" height="34" viewBox="0 0 143 34" fill="none" xmlns="http://www.w3.org/2000/svg">
<path d="M25.3629 12.283H18.1417C18.087 11.4678 18.0701 10.6773 17.9751 9.89721C17.7862 8.34619 16.9892 7.4997 15.4161 7.42156C13.5551 7.3304 11.6837 7.33822 9.82275 7.43198C8.30299 7.50882 7.46301 8.53241 7.37446 10.2137C7.32627 11.1253 7.36534 12.0421 7.34711 12.9563C7.3432 13.1425 7.31586 13.3821 7.20125 13.5032C6.58788 14.1531 5.94325 14.7743 5.30773 15.4033C5.21397 15.4957 5.10588 15.5739 4.93788 15.7145C4.92226 15.4632 4.90272 15.2939 4.90272 15.1246C4.90272 13.4746 4.88709 11.8246 4.91314 10.1746C4.96133 7.18585 7.25595 4.91988 10.233 4.90295C11.8035 4.89383 13.3767 4.96025 14.9433 4.88602C17.2393 4.77793 19.7943 6.20523 20.4507 9.35285C20.5327 9.74354 20.6591 9.89721 21.0602 9.87897C21.6514 9.85163 22.2439 9.87246 22.9654 9.87246C22.8573 9.31248 22.7948 8.83064 22.6685 8.36572C21.6801 4.70891 18.7734 2.46116 14.9889 2.43772C13.2999 2.4273 11.6082 2.41689 9.92042 2.47419C5.8 2.61483 2.47006 6.09454 2.47006 10.2163C2.47006 14.6297 2.5534 19.0445 2.44792 23.4553C2.33071 28.3349 6.57746 31.7534 10.651 31.6011C12.5159 31.5308 14.4003 31.6805 16.2482 31.4787C19.8621 31.0828 22.8274 27.831 22.899 24.3317C22.2101 24.3317 21.5186 24.3044 20.8323 24.3539C20.6942 24.3643 20.5119 24.6469 20.4624 24.8331C19.8569 27.1199 18.4478 28.5954 16.1076 29.0551C15.377 29.1984 14.6021 29.1502 13.8494 29.1398C12.3414 29.1189 10.8138 29.201 9.32919 28.9939C6.86917 28.6501 5.04337 26.5469 4.94309 24.0713C4.87147 22.295 4.92877 20.5121 4.92877 18.5782C5.77656 19.4234 6.53839 20.1631 7.26767 20.9341C7.37576 21.0487 7.3406 21.3104 7.34841 21.5045C7.39139 22.4747 7.35232 23.4566 7.48255 24.4138C7.67659 25.8411 8.57386 26.6654 10.0129 26.7149C11.7762 26.7761 13.546 26.7865 15.308 26.7032C17.0739 26.6211 18.0089 25.4426 18.0831 23.4032C18.1014 22.9122 18.0857 22.4213 18.0857 21.8912H25.277C25.9333 26.8373 23.8458 31.338 18.9426 33.2914C17.7485 33.7668 16.5035 33.9986 15.2168 33.9973C13.5069 33.996 11.7983 34.0064 10.0884 33.9934C4.96784 33.9569 -0.0746082 29.4927 0.00352881 23.7587C0.0647362 19.327 0.0855727 14.8915 0.00222653 10.4611C-0.116281 4.22055 4.51725 0.869772 8.80306 0.183468C10.7435 -0.127778 12.7646 0.0818899 14.748 0.00635745C16.2717 -0.0522453 17.7003 0.299371 19.0937 0.85154C22.9172 2.3674 25.3577 5.96301 25.3642 10.0678C25.3642 10.7815 25.3642 11.4951 25.3642 12.283H25.3629Z" fill="black"/>
<path d="M4.71517 17.2838C7.37574 14.5555 9.99463 11.8715 12.6773 9.11975C15.4225 11.8207 18.1013 14.4565 20.6499 16.9647C18.0076 19.7243 15.416 22.4317 12.7737 25.1912C10.0233 22.4929 7.36402 19.8844 4.71387 17.2851L4.71517 17.2838ZM8.35375 17.1535C9.75631 18.6329 11.1875 20.1423 12.6643 21.6998C14.2036 20.0954 15.6791 18.5561 17.0283 17.1496C15.657 15.6963 14.2205 14.1739 12.7659 12.632C11.2422 14.1934 9.76412 15.708 8.35245 17.1535H8.35375Z" fill="black"/>
<path d="M43.4925 14.5469H40.3817C40.3249 14.1444 40.2089 13.7869 40.0337 13.4744C39.8585 13.1572 39.6336 12.8873 39.359 12.6648C39.0844 12.4422 38.7672 12.2718 38.4073 12.1534C38.0522 12.035 37.6663 11.9759 37.2496 11.9759C36.4968 11.9759 35.841 12.1629 35.2823 12.5369C34.7236 12.9062 34.2904 13.446 33.9826 14.1562C33.6748 14.8617 33.521 15.7187 33.521 16.7273C33.521 17.7642 33.6748 18.6354 33.9826 19.3409C34.2951 20.0464 34.7307 20.5791 35.2894 20.9389C35.8481 21.2988 36.4944 21.4787 37.2283 21.4787C37.6403 21.4787 38.0214 21.4242 38.3718 21.3153C38.7269 21.2064 39.0418 21.0478 39.3164 20.8395C39.591 20.6264 39.8183 20.3684 39.9982 20.0653C40.1829 19.7623 40.3107 19.4167 40.3817 19.0284L43.4925 19.0426C43.4121 19.7102 43.2108 20.3542 42.8888 20.9744C42.5716 21.59 42.1431 22.1416 41.6033 22.6293C41.0683 23.1122 40.4291 23.4957 39.6857 23.7798C38.9471 24.0592 38.1114 24.1989 37.1786 24.1989C35.8813 24.1989 34.7212 23.9053 33.6985 23.3182C32.6805 22.7311 31.8756 21.8812 31.2837 20.7685C30.6966 19.6558 30.4031 18.3087 30.4031 16.7273C30.4031 15.1411 30.7013 13.7917 31.2979 12.679C31.8945 11.5663 32.7042 10.7187 33.7269 10.1364C34.7496 9.54924 35.9002 9.25568 37.1786 9.25568C38.0214 9.25568 38.8027 9.37405 39.5224 9.6108C40.2468 9.84754 40.8884 10.1932 41.4471 10.6477C42.0058 11.0975 42.4603 11.6491 42.8107 12.3026C43.1658 12.956 43.3931 13.7041 43.4925 14.5469ZM54.6822 9.45455H57.7575V18.9006C57.7575 19.9612 57.5041 20.8892 56.9975 21.6847C56.4956 22.4801 55.7925 23.1004 54.8881 23.5455C53.9838 23.9858 52.9303 24.206 51.7276 24.206C50.5202 24.206 49.4644 23.9858 48.56 23.5455C47.6557 23.1004 46.9525 22.4801 46.4506 21.6847C45.9487 20.8892 45.6978 19.9612 45.6978 18.9006V9.45455H48.7731V18.6378C48.7731 19.1918 48.8938 19.6842 49.1353 20.1151C49.3815 20.5459 49.7272 20.8845 50.1722 21.1307C50.6173 21.3769 51.1358 21.5 51.7276 21.5C52.3242 21.5 52.8427 21.3769 53.283 21.1307C53.7281 20.8845 54.0714 20.5459 54.3129 20.1151C54.5591 19.6842 54.6822 19.1918 54.6822 18.6378V9.45455ZM60.2876 24V9.45455H70.0888V11.9901H63.3629V15.456H69.5845V17.9915H63.3629V21.4645H70.1172V24H60.2876ZM72.5337 24V9.45455H82.3349V11.9901H75.609V15.456H81.8306V17.9915H75.609V21.4645H82.3633V24H72.5337ZM89.9361 24H84.7798V9.45455H89.9787C91.4418 9.45455 92.7012 9.74574 93.7571 10.3281C94.813 10.9058 95.625 11.7367 96.1932 12.821C96.7661 13.9053 97.0526 15.2027 97.0526 16.7131C97.0526 18.2282 96.7661 19.5303 96.1932 20.6193C95.625 21.7083 94.8082 22.544 93.7429 23.1264C92.6823 23.7088 91.4134 24 89.9361 24ZM87.8551 21.3651H89.8082C90.7173 21.3651 91.482 21.2041 92.1023 20.8821C92.7273 20.5554 93.196 20.0511 93.5085 19.3693C93.8258 18.6828 93.9844 17.7973 93.9844 16.7131C93.9844 15.6383 93.8258 14.7599 93.5085 14.0781C93.196 13.3963 92.7296 12.8944 92.1094 12.5724C91.4891 12.2505 90.7244 12.0895 89.8153 12.0895H87.8551V21.3651ZM101.017 24H97.7219L102.743 9.45455H106.706L111.721 24H108.425L104.782 12.7784H104.668L101.017 24ZM100.811 18.2827H108.596V20.6832H100.811V18.2827ZM125.621 14.5469H122.511C122.454 14.1444 122.338 13.7869 122.163 13.4744C121.987 13.1572 121.763 12.8873 121.488 12.6648C121.213 12.4422 120.896 12.2718 120.536 12.1534C120.181 12.035 119.795 11.9759 119.379 11.9759C118.626 11.9759 117.97 12.1629 117.411 12.5369C116.853 12.9062 116.419 13.446 116.112 14.1562C115.804 14.8617 115.65 15.7187 115.65 16.7273C115.65 17.7642 115.804 18.6354 116.112 19.3409C116.424 20.0464 116.86 20.5791 117.418 20.9389C117.977 21.2988 118.623 21.4787 119.357 21.4787C119.769 21.4787 120.15 21.4242 120.501 21.3153C120.856 21.2064 121.171 21.0478 121.445 20.8395C121.72 20.6264 121.947 20.3684 122.127 20.0653C122.312 19.7623 122.44 19.4167 122.511 19.0284L125.621 19.0426C125.541 19.7102 125.34 20.3542 125.018 20.9744C124.701 21.59 124.272 22.1416 123.732 22.6293C123.197 23.1122 122.558 23.4957 121.815 23.7798C121.076 24.0592 120.24 24.1989 119.308 24.1989C118.01 24.1989 116.85 23.9053 115.827 23.3182C114.809 22.7311 114.004 21.8812 113.413 20.7685C112.826 19.6558 112.532 18.3087 112.532 16.7273C112.532 15.1411 112.83 13.7917 113.427 12.679C114.023 11.5663 114.833 10.7187 115.856 10.1364C116.879 9.54924 118.029 9.25568 119.308 9.25568C120.15 9.25568 120.932 9.37405 121.651 9.6108C122.376 9.84754 123.017 10.1932 123.576 10.6477C124.135 11.0975 124.589 11.6491 124.94 12.3026C125.295 12.956 125.522 13.7041 125.621 14.5469ZM140.661 14.5469H137.55C137.493 14.1444 137.377 13.7869 137.202 13.4744C137.027 13.1572 136.802 12.8873 136.527 12.6648C136.252 12.4422 135.935 12.2718 135.575 12.1534C135.22 12.035 134.834 11.9759 134.418 11.9759C133.665 11.9759 133.009 12.1629 132.45 12.5369C131.892 12.9062 131.458 13.446 131.151 14.1562C130.843 14.8617 130.689 15.7187 130.689 16.7273C130.689 17.7642 130.843 18.6354 131.151 19.3409C131.463 20.0464 131.899 20.5791 132.457 20.9389C133.016 21.2988 133.662 21.4787 134.396 21.4787C134.808 21.4787 135.189 21.4242 135.54 21.3153C135.895 21.2064 136.21 21.0478 136.484 20.8395C136.759 20.6264 136.986 20.3684 137.166 20.0653C137.351 19.7623 137.479 19.4167 137.55 19.0284L140.661 19.0426C140.58 19.7102 140.379 20.3542 140.057 20.9744C139.74 21.59 139.311 22.1416 138.771 22.6293C138.236 23.1122 137.597 23.4957 136.854 23.7798C136.115 24.0592 135.279 24.1989 134.347 24.1989C133.049 24.1989 131.889 23.9053 130.866 23.3182C129.848 22.7311 129.044 21.8812 128.452 20.7685C127.865 19.6558 127.571 18.3087 127.571 16.7273C127.571 15.1411 127.869 13.7917 128.466 12.679C129.063 11.5663 129.872 10.7187 130.895 10.1364C131.918 9.54924 133.068 9.25568 134.347 9.25568C135.189 9.25568 135.971 9.37405 136.69 9.6108C137.415 9.84754 138.056 10.1932 138.615 10.6477C139.174 11.0975 139.628 11.6491 139.979 12.3026C140.334 12.956 140.561 13.7041 140.661 14.5469Z" fill="black"/>
</svg>
